<?xml version="1.0" encoding="utf-8" standalone="no"?>
<!DOCTYPE svg PUBLIC "-//W3C//DTD SVG 1.1//EN"
  "http://www.w3.org/Graphics/SVG/1.1/DTD/svg11.dtd">
<svg xmlns:xlink="http://www.w3.org/1999/xlink" width="460.8pt" height="345.6pt" viewBox="0 0 460.8 345.6" xmlns="http://www.w3.org/2000/svg" version="1.1">
 <metadata>
  <rdf:RDF xmlns:dc="http://purl.org/dc/elements/1.1/" xmlns:cc="http://creativecommons.org/ns#" xmlns:rdf="http://www.w3.org/1999/02/22-rdf-syntax-ns#">
   <cc:Work>
    <dc:type rdf:resource="http://purl.org/dc/dcmitype/StillImage"/>
    <dc:date>2023-03-31T06:58:20.344303</dc:date>
    <dc:format>image/svg+xml</dc:format>
    <dc:creator>
     <cc:Agent>
      <dc:title>Matplotlib v3.6.2, https://matplotlib.org/</dc:title>
     </cc:Agent>
    </dc:creator>
   </cc:Work>
  </rdf:RDF>
 </metadata>
 <defs>
  <style type="text/css">*{stroke-linejoin: round; stroke-linecap: butt}</style>
 </defs>
 <g id="figure_1">
  <g id="patch_1">
   <path d="M 0 345.6 
L 460.8 345.6 
L 460.8 0 
L 0 0 
z
" style="fill: #ffffff"/>
  </g>
  <g id="axes_1">
   <g id="patch_2">
    <path d="M 329.572472 129.727775 
C 323.860162 118.098281 316.07221 107.608884 306.592455 98.776566 
C 297.1127 89.944248 286.099483 82.916537 274.095606 78.039803 
C 262.091729 73.163068 249.297694 70.518768 236.344072 70.237229 
C 223.390449 69.955689 210.493606 72.041614 198.289179 76.392195 
C 186.084751 80.742776 174.776593 87.285346 164.922041 95.697444 
C 155.067489 104.109543 146.831145 114.250661 140.618947 125.620983 
C 134.40675 136.991304 130.322463 149.400907 128.567386 162.23817 
C 126.812309 175.075432 127.415757 188.12593 130.347988 200.746454 
C 133.280219 213.366978 138.492255 225.346725 145.727216 236.095257 
C 152.962176 246.843789 162.099214 256.181573 172.687998 263.648383 
C 183.276782 271.115193 195.140446 276.58631 207.694275 279.792083 
C 220.248104 282.997857 233.282408 283.88474 246.154776 282.409021 
C 259.027144 280.933303 271.522566 277.119632 283.025189 271.15597 
C 294.527812 265.192309 304.845507 257.178268 313.469751 247.508832 
C 322.093996 237.839395 328.880738 226.676072 333.495485 214.569061 
C 338.110233 202.462051 340.475904 189.613578 340.475904 176.656896 
L 234.031104 176.656896 
L 329.572472 129.727775 
z
" style="fill: #004c00; opacity: 0.5; stroke: #004c00; stroke-linejoin: miter"/>
   </g>
   <g id="patch_3">
    <path d="M 334.970869 142.868446 
C 334.218661 140.621298 333.391623 138.399894 332.491138 136.20795 
C 331.590652 134.016006 330.617221 131.854743 329.572472 129.727775 
L 234.031104 176.656896 
L 334.970869 142.868446 
z
" style="fill: #4c4c00; opacity: 0.5; stroke: #4c4c00; stroke-linejoin: miter"/>
   </g>
   <g id="patch_4">
    <path d="M 336.70078 148.560046 
C 336.439042 147.60362 336.163953 146.650898 335.875592 145.702159 
C 335.587231 144.75342 335.285627 143.808757 334.970869 142.868446 
L 234.031104 176.656896 
L 336.70078 148.560046 
z
" style="fill: #4c3200; opacity: 0.5; stroke: #4c3200; stroke-linejoin: miter"/>
   </g>
   <g id="patch_5">
    <path d="M 340.426441 173.412245 
C 340.298437 169.214866 339.92216 165.028737 339.299584 160.875814 
C 338.677008 156.72289 337.809223 152.610445 336.70078 148.560046 
L 234.031104 176.656896 
L 340.426441 173.412245 
z
" style="fill: #4c1e00; opacity: 0.5; stroke: #4c1e00; stroke-linejoin: miter"/>
   </g>
   <g id="patch_6">
    <path d="M 340.475904 176.656904 
C 340.475904 176.116041 340.471782 175.575186 340.463538 175.034386 
C 340.455293 174.493586 340.442927 173.952857 340.426441 173.412245 
L 234.031104 176.656896 
L 340.475904 176.656904 
z
" style="fill: #4c0000; opacity: 0.5; stroke: #4c0000; stroke-linejoin: miter"/>
   </g>
   <g id="patch_7">
    <path d="M 331.701368 127.598879 
C 325.989058 115.969385 318.201106 105.479988 308.721351 96.64767 
C 299.241596 87.815352 288.228379 80.787641 276.224502 75.910907 
C 264.220625 71.034172 251.42659 68.389872 238.472968 68.108333 
C 225.519345 67.826793 212.622502 69.912718 200.418075 74.263299 
C 188.213647 78.61388 176.905489 85.15645 167.050937 93.568548 
C 157.196385 101.980647 148.960041 112.121765 142.747843 123.492087 
C 136.535646 134.862408 132.451359 147.272011 130.696282 160.109274 
C 128.941205 172.946536 129.544653 185.997034 132.476884 198.617558 
C 135.409115 211.238082 140.621151 223.217829 147.856112 233.966361 
C 155.091072 244.714893 164.22811 254.052677 174.816894 261.519487 
C 185.405678 268.986297 197.269342 274.457414 209.823171 277.663187 
C 222.377 280.868961 235.411304 281.755844 248.283672 280.280125 
C 261.15604 278.804407 273.651462 274.990736 285.154085 269.027074 
C 296.656708 263.063413 306.974403 255.049372 315.598647 245.379936 
C 324.222892 235.710499 331.009634 224.547176 335.624381 212.440165 
C 340.239129 200.333155 342.6048 187.484682 342.6048 174.528 
L 236.16 174.528 
L 331.701368 127.598879 
z
" style="fill: #00ff00"/>
   </g>
   <g id="patch_8">
    <path d="M 337.099765 140.73955 
C 336.347557 138.492402 335.520519 136.270998 334.620034 134.079054 
C 333.719548 131.88711 332.746117 129.725847 331.701368 127.598879 
L 236.16 174.528 
L 337.099765 140.73955 
z
" style="fill: #ffff00"/>
   </g>
   <g id="patch_9">
    <path d="M 338.829676 146.43115 
C 338.567938 145.474724 338.292849 144.522002 338.004488 143.573263 
C 337.716127 142.624524 337.414523 141.679861 337.099765 140.73955 
L 236.16 174.528 
L 338.829676 146.43115 
z
" style="fill: #ffa500"/>
   </g>
   <g id="patch_10">
    <path d="M 342.555337 171.283349 
C 342.427333 167.08597 342.051056 162.899841 341.42848 158.746918 
C 340.805904 154.593994 339.938119 150.481549 338.829676 146.43115 
L 236.16 174.528 
L 342.555337 171.283349 
z
" style="fill: #ff6400"/>
   </g>
   <g id="patch_11">
    <path d="M 342.6048 174.528008 
C 342.6048 173.987145 342.600678 173.44629 342.592434 172.90549 
C 342.584189 172.36469 342.571823 171.823961 342.555337 171.283349 
L 236.16 174.528 
L 342.6048 174.528008 
z
" style="fill: #ff0000"/>
   </g>
   <g id="patch_12">
    <path d="M 307.816026 139.331159 
C 303.531794 130.609039 297.69083 122.741991 290.581013 116.117752 
C 283.471197 109.493514 275.211284 104.222731 266.208377 100.56518 
C 257.205469 96.907629 247.609943 94.924404 237.894726 94.713249 
C 228.179509 94.502095 218.506876 96.066539 209.353556 99.329474 
C 200.200236 102.59241 191.719117 107.499337 184.328203 113.808411 
C 176.937288 120.117485 170.76003 127.723324 166.100883 136.251065 
C 161.441735 144.778806 158.37852 154.086009 157.062212 163.713955 
C 155.745904 173.341902 156.198489 183.129776 158.397663 192.595169 
C 160.596836 202.060562 164.505863 211.045372 169.932084 219.106771 
C 175.358304 227.16817 182.211082 234.171508 190.15267 239.771615 
C 198.094258 245.371723 206.992007 249.475061 216.407378 251.879391 
C 225.82275 254.283721 235.598478 254.948883 245.252754 253.842094 
C 254.90703 252.735305 264.278597 249.875052 272.905564 245.402306 
C 281.532531 240.92956 289.270802 234.919029 295.738985 227.666952 
C 302.207169 220.414874 307.297226 212.042382 310.758286 202.962124 
C 314.219347 193.881866 315.9936 184.245511 315.9936 174.528 
L 236.16 174.528 
L 307.816026 139.331159 
z
" style="fill: #ffffff"/>
   </g>
   <g id="patch_13">
    <path d="M 315.9936 174.528007 
C 315.993601 168.446399 315.298669 162.384658 313.922338 156.460835 
C 312.546008 150.537012 310.497271 144.789812 307.816026 139.331159 
L 236.16 174.528 
L 315.9936 174.528007 
z
" style="fill: #d3d3d3"/>
   </g>
   <g id="matplotlib.axis_1"/>
   <g id="matplotlib.axis_2"/>
   <g id="text_1">
    <!-- 0 No damage -->
    <g transform="translate(56.214887 223.628087) rotate(-13.079942) scale(0.1 -0.1)">
     <defs>
      <path id="DejaVuSans-30" d="M 2034 4250 
Q 1547 4250 1301 3770 
Q 1056 3291 1056 2328 
Q 1056 1369 1301 889 
Q 1547 409 2034 409 
Q 2525 409 2770 889 
Q 3016 1369 3016 2328 
Q 3016 3291 2770 3770 
Q 2525 4250 2034 4250 
z
M 2034 4750 
Q 2819 4750 3233 4129 
Q 3647 3509 3647 2328 
Q 3647 1150 3233 529 
Q 2819 -91 2034 -91 
Q 1250 -91 836 529 
Q 422 1150 422 2328 
Q 422 3509 836 4129 
Q 1250 4750 2034 4750 
z
" transform="scale(0.015625)"/>
      <path id="DejaVuSans-20" transform="scale(0.015625)"/>
      <path id="DejaVuSans-4e" d="M 628 4666 
L 1478 4666 
L 3547 763 
L 3547 4666 
L 4159 4666 
L 4159 0 
L 3309 0 
L 1241 3903 
L 1241 0 
L 628 0 
L 628 4666 
z
" transform="scale(0.015625)"/>
      <path id="DejaVuSans-6f" d="M 1959 3097 
Q 1497 3097 1228 2736 
Q 959 2375 959 1747 
Q 959 1119 1226 758 
Q 1494 397 1959 397 
Q 2419 397 2687 759 
Q 2956 1122 2956 1747 
Q 2956 2369 2687 2733 
Q 2419 3097 1959 3097 
z
M 1959 3584 
Q 2709 3584 3137 3096 
Q 3566 2609 3566 1747 
Q 3566 888 3137 398 
Q 2709 -91 1959 -91 
Q 1206 -91 779 398 
Q 353 888 353 1747 
Q 353 2609 779 3096 
Q 1206 3584 1959 3584 
z
" transform="scale(0.015625)"/>
      <path id="DejaVuSans-64" d="M 2906 2969 
L 2906 4863 
L 3481 4863 
L 3481 0 
L 2906 0 
L 2906 525 
Q 2725 213 2448 61 
Q 2172 -91 1784 -91 
Q 1150 -91 751 415 
Q 353 922 353 1747 
Q 353 2572 751 3078 
Q 1150 3584 1784 3584 
Q 2172 3584 2448 3432 
Q 2725 3281 2906 2969 
z
M 947 1747 
Q 947 1113 1208 752 
Q 1469 391 1925 391 
Q 2381 391 2643 752 
Q 2906 1113 2906 1747 
Q 2906 2381 2643 2742 
Q 2381 3103 1925 3103 
Q 1469 3103 1208 2742 
Q 947 2381 947 1747 
z
" transform="scale(0.015625)"/>
      <path id="DejaVuSans-61" d="M 2194 1759 
Q 1497 1759 1228 1600 
Q 959 1441 959 1056 
Q 959 750 1161 570 
Q 1363 391 1709 391 
Q 2188 391 2477 730 
Q 2766 1069 2766 1631 
L 2766 1759 
L 2194 1759 
z
M 3341 1997 
L 3341 0 
L 2766 0 
L 2766 531 
Q 2569 213 2275 61 
Q 1981 -91 1556 -91 
Q 1019 -91 701 211 
Q 384 513 384 1019 
Q 384 1609 779 1909 
Q 1175 2209 1959 2209 
L 2766 2209 
L 2766 2266 
Q 2766 2663 2505 2880 
Q 2244 3097 1772 3097 
Q 1472 3097 1187 3025 
Q 903 2953 641 2809 
L 641 3341 
Q 956 3463 1253 3523 
Q 1550 3584 1831 3584 
Q 2591 3584 2966 3190 
Q 3341 2797 3341 1997 
z
" transform="scale(0.015625)"/>
      <path id="DejaVuSans-6d" d="M 3328 2828 
Q 3544 3216 3844 3400 
Q 4144 3584 4550 3584 
Q 5097 3584 5394 3201 
Q 5691 2819 5691 2113 
L 5691 0 
L 5113 0 
L 5113 2094 
Q 5113 2597 4934 2840 
Q 4756 3084 4391 3084 
Q 3944 3084 3684 2787 
Q 3425 2491 3425 1978 
L 3425 0 
L 2847 0 
L 2847 2094 
Q 2847 2600 2669 2842 
Q 2491 3084 2119 3084 
Q 1678 3084 1418 2786 
Q 1159 2488 1159 1978 
L 1159 0 
L 581 0 
L 581 3500 
L 1159 3500 
L 1159 2956 
Q 1356 3278 1631 3431 
Q 1906 3584 2284 3584 
Q 2666 3584 2933 3390 
Q 3200 3197 3328 2828 
z
" transform="scale(0.015625)"/>
      <path id="DejaVuSans-67" d="M 2906 1791 
Q 2906 2416 2648 2759 
Q 2391 3103 1925 3103 
Q 1463 3103 1205 2759 
Q 947 2416 947 1791 
Q 947 1169 1205 825 
Q 1463 481 1925 481 
Q 2391 481 2648 825 
Q 2906 1169 2906 1791 
z
M 3481 434 
Q 3481 -459 3084 -895 
Q 2688 -1331 1869 -1331 
Q 1566 -1331 1297 -1286 
Q 1028 -1241 775 -1147 
L 775 -588 
Q 1028 -725 1275 -790 
Q 1522 -856 1778 -856 
Q 2344 -856 2625 -561 
Q 2906 -266 2906 331 
L 2906 616 
Q 2728 306 2450 153 
Q 2172 0 1784 0 
Q 1141 0 747 490 
Q 353 981 353 1791 
Q 353 2603 747 3093 
Q 1141 3584 1784 3584 
Q 2172 3584 2450 3431 
Q 2728 3278 2906 2969 
L 2906 3500 
L 3481 3500 
L 3481 434 
z
" transform="scale(0.015625)"/>
      <path id="DejaVuSans-65" d="M 3597 1894 
L 3597 1613 
L 953 1613 
Q 991 1019 1311 708 
Q 1631 397 2203 397 
Q 2534 397 2845 478 
Q 3156 559 3463 722 
L 3463 178 
Q 3153 47 2828 -22 
Q 2503 -91 2169 -91 
Q 1331 -91 842 396 
Q 353 884 353 1716 
Q 353 2575 817 3079 
Q 1281 3584 2069 3584 
Q 2775 3584 3186 3129 
Q 3597 2675 3597 1894 
z
M 3022 2063 
Q 3016 2534 2758 2815 
Q 2500 3097 2075 3097 
Q 1594 3097 1305 2825 
Q 1016 2553 972 2059 
L 3022 2063 
z
" transform="scale(0.015625)"/>
     </defs>
     <use xlink:href="#DejaVuSans-30"/>
     <use xlink:href="#DejaVuSans-20" x="63.623047"/>
     <use xlink:href="#DejaVuSans-4e" x="95.410156"/>
     <use xlink:href="#DejaVuSans-6f" x="170.214844"/>
     <use xlink:href="#DejaVuSans-20" x="231.396484"/>
     <use xlink:href="#DejaVuSans-64" x="263.183594"/>
     <use xlink:href="#DejaVuSans-61" x="326.660156"/>
     <use xlink:href="#DejaVuSans-6d" x="387.939453"/>
     <use xlink:href="#DejaVuSans-61" x="485.351562"/>
     <use xlink:href="#DejaVuSans-67" x="546.630859"/>
     <use xlink:href="#DejaVuSans-65" x="610.107422"/>
    </g>
   </g>
   <g id="text_2">
    <!-- 93% -->
    <g transform="translate(136.91607 197.763499) scale(0.1 -0.1)">
     <defs>
      <path id="DejaVuSans-39" d="M 703 97 
L 703 672 
Q 941 559 1184 500 
Q 1428 441 1663 441 
Q 2288 441 2617 861 
Q 2947 1281 2994 2138 
Q 2813 1869 2534 1725 
Q 2256 1581 1919 1581 
Q 1219 1581 811 2004 
Q 403 2428 403 3163 
Q 403 3881 828 4315 
Q 1253 4750 1959 4750 
Q 2769 4750 3195 4129 
Q 3622 3509 3622 2328 
Q 3622 1225 3098 567 
Q 2575 -91 1691 -91 
Q 1453 -91 1209 -44 
Q 966 3 703 97 
z
M 1959 2075 
Q 2384 2075 2632 2365 
Q 2881 2656 2881 3163 
Q 2881 3666 2632 3958 
Q 2384 4250 1959 4250 
Q 1534 4250 1286 3958 
Q 1038 3666 1038 3163 
Q 1038 2656 1286 2365 
Q 1534 2075 1959 2075 
z
" transform="scale(0.015625)"/>
      <path id="DejaVuSans-33" d="M 2597 2516 
Q 3050 2419 3304 2112 
Q 3559 1806 3559 1356 
Q 3559 666 3084 287 
Q 2609 -91 1734 -91 
Q 1441 -91 1130 -33 
Q 819 25 488 141 
L 488 750 
Q 750 597 1062 519 
Q 1375 441 1716 441 
Q 2309 441 2620 675 
Q 2931 909 2931 1356 
Q 2931 1769 2642 2001 
Q 2353 2234 1838 2234 
L 1294 2234 
L 1294 2753 
L 1863 2753 
Q 2328 2753 2575 2939 
Q 2822 3125 2822 3475 
Q 2822 3834 2567 4026 
Q 2313 4219 1838 4219 
Q 1578 4219 1281 4162 
Q 984 4106 628 3988 
L 628 4550 
Q 988 4650 1302 4700 
Q 1616 4750 1894 4750 
Q 2613 4750 3031 4423 
Q 3450 4097 3450 3541 
Q 3450 3153 3228 2886 
Q 3006 2619 2597 2516 
z
" transform="scale(0.015625)"/>
      <path id="DejaVuSans-25" d="M 4653 2053 
Q 4381 2053 4226 1822 
Q 4072 1591 4072 1178 
Q 4072 772 4226 539 
Q 4381 306 4653 306 
Q 4919 306 5073 539 
Q 5228 772 5228 1178 
Q 5228 1588 5073 1820 
Q 4919 2053 4653 2053 
z
M 4653 2450 
Q 5147 2450 5437 2106 
Q 5728 1763 5728 1178 
Q 5728 594 5436 251 
Q 5144 -91 4653 -91 
Q 4153 -91 3862 251 
Q 3572 594 3572 1178 
Q 3572 1766 3864 2108 
Q 4156 2450 4653 2450 
z
M 1428 4353 
Q 1159 4353 1004 4120 
Q 850 3888 850 3481 
Q 850 3069 1003 2837 
Q 1156 2606 1428 2606 
Q 1700 2606 1854 2837 
Q 2009 3069 2009 3481 
Q 2009 3884 1853 4118 
Q 1697 4353 1428 4353 
z
M 4250 4750 
L 4750 4750 
L 1831 -91 
L 1331 -91 
L 4250 4750 
z
M 1428 4750 
Q 1922 4750 2215 4408 
Q 2509 4066 2509 3481 
Q 2509 2891 2217 2550 
Q 1925 2209 1428 2209 
Q 931 2209 642 2551 
Q 353 2894 353 3481 
Q 353 4063 643 4406 
Q 934 4750 1428 4750 
z
" transform="scale(0.015625)"/>
     </defs>
     <use xlink:href="#DejaVuSans-39"/>
     <use xlink:href="#DejaVuSans-33" x="63.623047"/>
     <use xlink:href="#DejaVuSans-25" x="127.246094"/>
    </g>
   </g>
   <g id="text_3">
    <!-- 1 Light damage -->
    <g transform="translate(347.353438 128.110476) rotate(-22.333637) scale(0.1 -0.1)">
     <defs>
      <path id="DejaVuSans-31" d="M 794 531 
L 1825 531 
L 1825 4091 
L 703 3866 
L 703 4441 
L 1819 4666 
L 2450 4666 
L 2450 531 
L 3481 531 
L 3481 0 
L 794 0 
L 794 531 
z
" transform="scale(0.015625)"/>
      <path id="DejaVuSans-4c" d="M 628 4666 
L 1259 4666 
L 1259 531 
L 3531 531 
L 3531 0 
L 628 0 
L 628 4666 
z
" transform="scale(0.015625)"/>
      <path id="DejaVuSans-69" d="M 603 3500 
L 1178 3500 
L 1178 0 
L 603 0 
L 603 3500 
z
M 603 4863 
L 1178 4863 
L 1178 4134 
L 603 4134 
L 603 4863 
z
" transform="scale(0.015625)"/>
      <path id="DejaVuSans-68" d="M 3513 2113 
L 3513 0 
L 2938 0 
L 2938 2094 
Q 2938 2591 2744 2837 
Q 2550 3084 2163 3084 
Q 1697 3084 1428 2787 
Q 1159 2491 1159 1978 
L 1159 0 
L 581 0 
L 581 4863 
L 1159 4863 
L 1159 2956 
Q 1366 3272 1645 3428 
Q 1925 3584 2291 3584 
Q 2894 3584 3203 3211 
Q 3513 2838 3513 2113 
z
" transform="scale(0.015625)"/>
      <path id="DejaVuSans-74" d="M 1172 4494 
L 1172 3500 
L 2356 3500 
L 2356 3053 
L 1172 3053 
L 1172 1153 
Q 1172 725 1289 603 
Q 1406 481 1766 481 
L 2356 481 
L 2356 0 
L 1766 0 
Q 1100 0 847 248 
Q 594 497 594 1153 
L 594 3053 
L 172 3053 
L 172 3500 
L 594 3500 
L 594 4494 
L 1172 4494 
z
" transform="scale(0.015625)"/>
     </defs>
     <use xlink:href="#DejaVuSans-31"/>
     <use xlink:href="#DejaVuSans-20" x="63.623047"/>
     <use xlink:href="#DejaVuSans-4c" x="95.410156"/>
     <use xlink:href="#DejaVuSans-69" x="151.123047"/>
     <use xlink:href="#DejaVuSans-67" x="178.90625"/>
     <use xlink:href="#DejaVuSans-68" x="242.382812"/>
     <use xlink:href="#DejaVuSans-74" x="305.761719"/>
     <use xlink:href="#DejaVuSans-20" x="344.970703"/>
     <use xlink:href="#DejaVuSans-64" x="376.757812"/>
     <use xlink:href="#DejaVuSans-61" x="440.234375"/>
     <use xlink:href="#DejaVuSans-6d" x="501.513672"/>
     <use xlink:href="#DejaVuSans-61" x="598.925781"/>
     <use xlink:href="#DejaVuSans-67" x="660.205078"/>
     <use xlink:href="#DejaVuSans-65" x="723.681641"/>
    </g>
   </g>
   <g id="text_4">
    <!-- 2% -->
    <g transform="translate(311.918997 142.905771) scale(0.1 -0.1)">
     <defs>
      <path id="DejaVuSans-32" d="M 1228 531 
L 3431 531 
L 3431 0 
L 469 0 
L 469 531 
Q 828 903 1448 1529 
Q 2069 2156 2228 2338 
Q 2531 2678 2651 2914 
Q 2772 3150 2772 3378 
Q 2772 3750 2511 3984 
Q 2250 4219 1831 4219 
Q 1534 4219 1204 4116 
Q 875 4013 500 3803 
L 500 4441 
Q 881 4594 1212 4672 
Q 1544 4750 1819 4750 
Q 2544 4750 2975 4387 
Q 3406 4025 3406 3419 
Q 3406 3131 3298 2873 
Q 3191 2616 2906 2266 
Q 2828 2175 2409 1742 
Q 1991 1309 1228 531 
z
" transform="scale(0.015625)"/>
     </defs>
     <use xlink:href="#DejaVuSans-32"/>
     <use xlink:href="#DejaVuSans-25" x="63.623047"/>
    </g>
   </g>
   <g id="text_5">
    <!-- 2 Medium damage -->
    <g transform="translate(350.398604 138.487982) rotate(-16.906188) scale(0.1 -0.1)">
     <defs>
      <path id="DejaVuSans-4d" d="M 628 4666 
L 1569 4666 
L 2759 1491 
L 3956 4666 
L 4897 4666 
L 4897 0 
L 4281 0 
L 4281 4097 
L 3078 897 
L 2444 897 
L 1241 4097 
L 1241 0 
L 628 0 
L 628 4666 
z
" transform="scale(0.015625)"/>
      <path id="DejaVuSans-75" d="M 544 1381 
L 544 3500 
L 1119 3500 
L 1119 1403 
Q 1119 906 1312 657 
Q 1506 409 1894 409 
Q 2359 409 2629 706 
Q 2900 1003 2900 1516 
L 2900 3500 
L 3475 3500 
L 3475 0 
L 2900 0 
L 2900 538 
Q 2691 219 2414 64 
Q 2138 -91 1772 -91 
Q 1169 -91 856 284 
Q 544 659 544 1381 
z
M 1991 3584 
L 1991 3584 
z
" transform="scale(0.015625)"/>
     </defs>
     <use xlink:href="#DejaVuSans-32"/>
     <use xlink:href="#DejaVuSans-20" x="63.623047"/>
     <use xlink:href="#DejaVuSans-4d" x="95.410156"/>
     <use xlink:href="#DejaVuSans-65" x="181.689453"/>
     <use xlink:href="#DejaVuSans-64" x="243.212891"/>
     <use xlink:href="#DejaVuSans-69" x="306.689453"/>
     <use xlink:href="#DejaVuSans-75" x="334.472656"/>
     <use xlink:href="#DejaVuSans-6d" x="397.851562"/>
     <use xlink:href="#DejaVuSans-20" x="495.263672"/>
     <use xlink:href="#DejaVuSans-64" x="527.050781"/>
     <use xlink:href="#DejaVuSans-61" x="590.527344"/>
     <use xlink:href="#DejaVuSans-6d" x="651.806641"/>
     <use xlink:href="#DejaVuSans-61" x="749.21875"/>
     <use xlink:href="#DejaVuSans-67" x="810.498047"/>
     <use xlink:href="#DejaVuSans-65" x="873.974609"/>
    </g>
   </g>
   <g id="text_6">
    <!-- 1% -->
    <g transform="translate(314.795783 150.975849) scale(0.1 -0.1)">
     <use xlink:href="#DejaVuSans-31"/>
     <use xlink:href="#DejaVuSans-25" x="63.623047"/>
    </g>
   </g>
   <g id="text_7">
    <!-- 3 High damage -->
    <g transform="translate(353.081842 155.112105) rotate(-8.525874) scale(0.1 -0.1)">
     <defs>
      <path id="DejaVuSans-48" d="M 628 4666 
L 1259 4666 
L 1259 2753 
L 3553 2753 
L 3553 4666 
L 4184 4666 
L 4184 0 
L 3553 0 
L 3553 2222 
L 1259 2222 
L 1259 0 
L 628 0 
L 628 4666 
z
" transform="scale(0.015625)"/>
     </defs>
     <use xlink:href="#DejaVuSans-33"/>
     <use xlink:href="#DejaVuSans-20" x="63.623047"/>
     <use xlink:href="#DejaVuSans-48" x="95.410156"/>
     <use xlink:href="#DejaVuSans-69" x="170.605469"/>
     <use xlink:href="#DejaVuSans-67" x="198.388672"/>
     <use xlink:href="#DejaVuSans-68" x="261.865234"/>
     <use xlink:href="#DejaVuSans-20" x="325.244141"/>
     <use xlink:href="#DejaVuSans-64" x="357.03125"/>
     <use xlink:href="#DejaVuSans-61" x="420.507812"/>
     <use xlink:href="#DejaVuSans-6d" x="481.787109"/>
     <use xlink:href="#DejaVuSans-61" x="579.199219"/>
     <use xlink:href="#DejaVuSans-67" x="640.478516"/>
     <use xlink:href="#DejaVuSans-65" x="703.955078"/>
    </g>
   </g>
   <g id="text_8">
    <!-- 4% -->
    <g transform="translate(317.706177 163.873455) scale(0.1 -0.1)">
     <defs>
      <path id="DejaVuSans-34" d="M 2419 4116 
L 825 1625 
L 2419 1625 
L 2419 4116 
z
M 2253 4666 
L 3047 4666 
L 3047 1625 
L 3713 1625 
L 3713 1100 
L 3047 1100 
L 3047 0 
L 2419 0 
L 2419 1100 
L 313 1100 
L 313 1709 
L 2253 4666 
z
" transform="scale(0.015625)"/>
     </defs>
     <use xlink:href="#DejaVuSans-34"/>
     <use xlink:href="#DejaVuSans-25" x="63.623047"/>
    </g>
   </g>
   <g id="text_9">
    <!-- 4 Moribund or dead -->
    <g transform="translate(353.351498 170.663793) rotate(-0.873378) scale(0.1 -0.1)">
     <defs>
      <path id="DejaVuSans-72" d="M 2631 2963 
Q 2534 3019 2420 3045 
Q 2306 3072 2169 3072 
Q 1681 3072 1420 2755 
Q 1159 2438 1159 1844 
L 1159 0 
L 581 0 
L 581 3500 
L 1159 3500 
L 1159 2956 
Q 1341 3275 1631 3429 
Q 1922 3584 2338 3584 
Q 2397 3584 2469 3576 
Q 2541 3569 2628 3553 
L 2631 2963 
z
" transform="scale(0.015625)"/>
      <path id="DejaVuSans-62" d="M 3116 1747 
Q 3116 2381 2855 2742 
Q 2594 3103 2138 3103 
Q 1681 3103 1420 2742 
Q 1159 2381 1159 1747 
Q 1159 1113 1420 752 
Q 1681 391 2138 391 
Q 2594 391 2855 752 
Q 3116 1113 3116 1747 
z
M 1159 2969 
Q 1341 3281 1617 3432 
Q 1894 3584 2278 3584 
Q 2916 3584 3314 3078 
Q 3713 2572 3713 1747 
Q 3713 922 3314 415 
Q 2916 -91 2278 -91 
Q 1894 -91 1617 61 
Q 1341 213 1159 525 
L 1159 0 
L 581 0 
L 581 4863 
L 1159 4863 
L 1159 2969 
z
" transform="scale(0.015625)"/>
      <path id="DejaVuSans-6e" d="M 3513 2113 
L 3513 0 
L 2938 0 
L 2938 2094 
Q 2938 2591 2744 2837 
Q 2550 3084 2163 3084 
Q 1697 3084 1428 2787 
Q 1159 2491 1159 1978 
L 1159 0 
L 581 0 
L 581 3500 
L 1159 3500 
L 1159 2956 
Q 1366 3272 1645 3428 
Q 1925 3584 2291 3584 
Q 2894 3584 3203 3211 
Q 3513 2838 3513 2113 
z
" transform="scale(0.015625)"/>
     </defs>
     <use xlink:href="#DejaVuSans-34"/>
     <use xlink:href="#DejaVuSans-20" x="63.623047"/>
     <use xlink:href="#DejaVuSans-4d" x="95.410156"/>
     <use xlink:href="#DejaVuSans-6f" x="181.689453"/>
     <use xlink:href="#DejaVuSans-72" x="242.871094"/>
     <use xlink:href="#DejaVuSans-69" x="283.984375"/>
     <use xlink:href="#DejaVuSans-62" x="311.767578"/>
     <use xlink:href="#DejaVuSans-75" x="375.244141"/>
     <use xlink:href="#DejaVuSans-6e" x="438.623047"/>
     <use xlink:href="#DejaVuSans-64" x="502.001953"/>
     <use xlink:href="#DejaVuSans-20" x="565.478516"/>
     <use xlink:href="#DejaVuSans-6f" x="597.265625"/>
     <use xlink:href="#DejaVuSans-72" x="658.447266"/>
     <use xlink:href="#DejaVuSans-20" x="699.560547"/>
     <use xlink:href="#DejaVuSans-64" x="731.347656"/>
     <use xlink:href="#DejaVuSans-65" x="794.824219"/>
     <use xlink:href="#DejaVuSans-61" x="856.347656"/>
     <use xlink:href="#DejaVuSans-64" x="917.626953"/>
    </g>
   </g>
   <g id="text_10">
    <!-- 0% -->
    <g transform="translate(318.695537 175.908242) scale(0.1 -0.1)">
     <use xlink:href="#DejaVuSans-30"/>
     <use xlink:href="#DejaVuSans-25" x="63.623047"/>
    </g>
   </g>
   <g id="text_11">
    <!-- 7% -->
    <g transform="translate(213.950313 150.900375) scale(0.28 -0.28)">
     <defs>
      <path id="DejaVuSans-37" d="M 525 4666 
L 3525 4666 
L 3525 4397 
L 1831 0 
L 1172 0 
L 2766 4134 
L 525 4134 
L 525 4666 
z
" transform="scale(0.015625)"/>
     </defs>
     <use xlink:href="#DejaVuSans-37"/>
     <use xlink:href="#DejaVuSans-25" x="63.623047"/>
    </g>
    <!-- damaged -->
    <g transform="translate(170.086563 182.25425) scale(0.28 -0.28)">
     <use xlink:href="#DejaVuSans-64"/>
     <use xlink:href="#DejaVuSans-61" x="63.476562"/>
     <use xlink:href="#DejaVuSans-6d" x="124.755859"/>
     <use xlink:href="#DejaVuSans-61" x="222.167969"/>
     <use xlink:href="#DejaVuSans-67" x="283.447266"/>
     <use xlink:href="#DejaVuSans-65" x="346.923828"/>
     <use xlink:href="#DejaVuSans-64" x="408.447266"/>
    </g>
    <!-- trees -->
    <g transform="translate(200.709375 213.608125) scale(0.28 -0.28)">
     <defs>
      <path id="DejaVuSans-73" d="M 2834 3397 
L 2834 2853 
Q 2591 2978 2328 3040 
Q 2066 3103 1784 3103 
Q 1356 3103 1142 2972 
Q 928 2841 928 2578 
Q 928 2378 1081 2264 
Q 1234 2150 1697 2047 
L 1894 2003 
Q 2506 1872 2764 1633 
Q 3022 1394 3022 966 
Q 3022 478 2636 193 
Q 2250 -91 1575 -91 
Q 1294 -91 989 -36 
Q 684 19 347 128 
L 347 722 
Q 666 556 975 473 
Q 1284 391 1588 391 
Q 1994 391 2212 530 
Q 2431 669 2431 922 
Q 2431 1156 2273 1281 
Q 2116 1406 1581 1522 
L 1381 1569 
Q 847 1681 609 1914 
Q 372 2147 372 2553 
Q 372 3047 722 3315 
Q 1072 3584 1716 3584 
Q 2034 3584 2315 3537 
Q 2597 3491 2834 3397 
z
" transform="scale(0.015625)"/>
     </defs>
     <use xlink:href="#DejaVuSans-74"/>
     <use xlink:href="#DejaVuSans-72" x="39.208984"/>
     <use xlink:href="#DejaVuSans-65" x="78.072266"/>
     <use xlink:href="#DejaVuSans-65" x="139.595703"/>
     <use xlink:href="#DejaVuSans-73" x="201.119141"/>
    </g>
   </g>
  </g>
 </g>
</svg>
